<svg width="48" height="34" viewBox="0 0 48 34" fill="none" xmlns="http://www.w3.org/2000/svg">
<path d="M45.0433 14.1222C43.5452 11.357 40.9571 9.36356 38.1884 7.97321C35.185 6.46798 31.775 5.24393 28.4091 4.9771C25.4956 4.74497 22.4014 5.42939 20.2081 7.45631C18.7064 8.85383 17.5266 11.144 16.7118 12.9616C16.0346 14.474 15.4818 16.0737 15.4196 17.7429C15.2999 21.0178 17.139 24.0582 18.7017 26.809C20.1961 29.4366 22.0316 31.8571 24.9847 32.8969C27.8108 33.8924 31.0607 33.7836 33.9598 33.165C39.6709 31.9421 44.7417 28.0079 46.0436 22.1234C46.6406 19.4312 46.3691 16.5643 45.0409 14.1246L45.0433 14.1222Z" fill="#DCE5F2"/>
<mask id="mask0_15_96" style="mask-type:luminance" maskUnits="userSpaceOnUse" x="0" y="0" width="24" height="26">
<path d="M16.7525 24.2699C18.9207 22.8986 20.4007 20.6838 21.3795 18.3554C22.4396 15.8283 23.2473 12.9878 23.2808 10.2346C23.3095 7.85107 22.5832 5.37065 20.8135 3.6979C19.5942 2.55283 17.6655 1.71885 16.1423 1.15528C14.8739 0.68624 13.5422 0.32369 12.1818 0.365569C9.50988 0.44813 7.1372 2.1113 4.98583 3.53398C2.929 4.89444 1.06002 6.52052 0.3768 8.98056C-0.277702 11.3354 -0.0108758 13.9737 0.652 16.2986C1.96101 20.8777 5.44052 24.788 10.2996 25.525C12.5228 25.8636 14.8404 25.4843 16.7525 24.2699Z" fill="white"/>
</mask>
<g mask="url(#mask0_15_96)">
<path d="M2.53534 25.0619C8.64599 21.4568 14.4229 18.0479 20.2021 14.6377C21.0553 14.1341 21.9192 13.7033 22.7626 13.1038C26.6478 10.3398 29.3412 9.87919 32.177 9.09542C32.8339 8.91355 33.0444 9.3874 33.6092 9.62195C30.2673 11.5782 27.3083 13.3396 24.3696 15.0255C18.6442 18.3111 12.9284 21.5645 7.21377 24.8143C3.5823 26.8795 3.58589 26.8675 2.53534 25.0619Z" fill="#DCE5F2"/>
<path d="M4.61369 27.8334C7.48537 26.1463 9.93343 24.6829 12.3624 23.2878C18.7244 19.6335 25.084 15.9877 31.4268 12.3957C32.3923 11.849 33.9993 10.4442 34.0447 11.4517C34.0699 11.9973 31.7319 14.5794 30.5653 15.3081C28.9906 16.2928 27.4232 17.2345 25.8557 18.1762C20.8207 21.2034 15.7953 24.1828 10.7495 27.2662C8.66156 28.5417 7.66962 28.4256 6.67412 28.2474C6.05312 28.1361 5.45246 28.0021 4.61369 27.8334Z" fill="#DCE5F2"/>
<path d="M22.0471 7.62048C20.2786 8.75122 18.5329 9.36982 16.8326 10.3725C14.8656 11.5331 12.8398 12.9426 10.8404 14.2301C8.27984 15.8789 5.71685 17.5481 3.16465 19.1443C1.68096 20.0716 1.05158 20.5909 0.535872 19.4278C0.286995 18.8679 -0.0193163 18.3175 0.674667 17.7623C1.95974 17.024 3.89454 15.5978 5.04918 14.8583C8.40068 12.7118 11.7593 10.5005 15.1144 8.32406C16.3289 7.53672 17.5398 6.77932 18.753 5.99679C21.2646 4.37789 22.0878 4.69257 22.1368 5.94056C22.1476 6.22532 22.229 6.46224 22.3342 6.74462C22.4001 6.92291 22.4635 7.35246 22.0471 7.61929V7.62048Z" fill="#DCE5F2"/>
<path d="M24.0047 10.6229C21.5924 12.018 19.2819 13.3462 16.9594 14.7222C13.2838 16.8999 9.60676 19.0644 5.91072 21.357C1.53262 24.0731 1.52305 24.1305 1.45125 21.4407C2.86555 20.6797 4.1925 20.079 5.54937 19.2092C7.69113 17.8368 9.86409 16.1999 12.0058 14.8334C14.0268 13.5436 16.0238 12.4584 18.0304 11.2869C18.1704 11.2044 24.1542 8.23339 24.8242 9.5735C24.9631 9.85114 24.5 10.3357 24.0058 10.6205L24.0047 10.6229Z" fill="#DCE5F2"/>
<path d="M21.0229 3.22787C14.4599 7.43367 7.4267 11.8704 0.397086 16.3754C-2.18144 16.623 -1.94811 15.4074 -1.1943 13.9584C-1.12969 13.8352 1.03483 12.4759 3.92565 10.7146C8.57535 7.88117 15.1024 4.00801 17.7803 2.56618C20.6903 0.999928 20.8805 1.20573 21.024 3.22787H21.0229Z" fill="#DCE5F2"/>
<path d="M17.2335 1.76131C16.5826 2.31649 6.90866 7.85524 2.35108 10.2507C0.656787 11.1409 -0.983654 12.7359 -1.36893 12.6186C-1.85353 12.4715 -2.73657 11.3108 -1.76857 10.4613C0.194929 8.73711 5.14497 6.05566 7.21497 4.75264C9.20963 3.49747 15.4255 0.0885585 16.6388 0.193853C17.4836 0.266841 18.1262 1.00031 17.2335 1.76131Z" fill="#DCE5F2"/>
<path d="M-3.91159 7.29969C-3.26068 6.7445 6.41447 1.20576 10.9708 -1.18969C12.6652 -2.07991 14.3056 -3.67489 14.6908 -3.55763C15.1755 -3.41045 16.0585 -2.24982 15.0905 -1.40028C13.127 0.323919 8.17697 3.00534 6.10696 4.30717C4.11234 5.56233 -2.10363 8.97128 -3.31691 8.86716C-4.16166 8.79416 -4.8042 8.06069 -3.91159 7.29969Z" fill="#DCE5F2"/>
<path d="M30.1871 16.6857C25.4524 22.1144 15.2436 28.2286 11.2376 28.0312C17.5541 24.249 23.8707 20.4667 30.1871 16.6857Z" fill="#DCE5F2"/>
</g>
<path d="M27.0295 13.5728C27.1061 13.72 27.1085 13.8946 27.0319 14.0431L20.7226 26.3817L20.5921 26.6353L20.5898 26.6413C20.3445 27.0684 19.9867 27.437 19.5297 27.7015C18.1393 28.5056 16.3613 28.0281 15.5584 26.6365C15.5392 26.6043 15.5213 26.5708 15.5045 26.5384L8.42347 13.1361C8.10036 12.5246 8.54308 11.7888 9.23354 11.7888H25.212C25.7528 11.7888 26.2493 12.0879 26.5018 12.5677L27.0307 13.5716H27.0295V13.5728Z" fill="#0048D2"/>
<path d="M18.7543 7.85579C19.5428 9.43522 18.9039 10.7155 17.3256 10.7155C15.7474 10.7155 13.8305 9.43645 13.0409 7.85579C12.2524 6.27636 13.3507 5.48785 14.9278 5.48785C16.5048 5.48785 17.9657 6.27636 18.7531 7.85579H18.7543Z" fill="#0048D2"/>
<path d="M25.4704 16.0951C25.5339 16.2148 25.5351 16.3607 25.4729 16.4816L23.0283 26.6341L22.9206 26.8424L22.9182 26.8471C22.716 27.1989 22.4217 27.5028 22.0448 27.7193C20.9009 28.3799 19.4388 27.9886 18.7771 26.8435C18.7615 26.8172 18.7459 26.7897 18.7316 26.7621L13.078 15.8581C12.8123 15.3556 13.1761 14.7502 13.7445 14.7502L23.9712 14.627C24.4163 14.627 24.8244 14.8734 25.0325 15.2671L25.468 16.0939L25.4704 16.0951Z" fill="#FFF1BA"/>
<path d="M24.2882 18.145C24.3242 18.2132 24.3254 18.2958 24.2895 18.3652L23.2856 24.166L23.2245 24.2856V24.288C23.1073 24.489 22.9398 24.6625 22.7244 24.787C22.0711 25.165 21.2347 24.9401 20.8578 24.2868C20.8495 24.2713 20.841 24.2557 20.8327 24.2414L17.6224 18.0589C17.4704 17.7717 17.6786 17.4259 18.0029 17.4259L23.4339 17.3075C23.6876 17.3075 23.9221 17.4486 24.0406 17.6736L24.2895 18.145H24.2882Z" fill="#FF6E70"/>
<path d="M47.6828 7.35166L38.3128 25.5988C37.5218 27.1375 35.9353 28.1019 34.2063 28.0935H18.0256C18.7794 28.0935 19.5823 27.4283 20.0944 26.3777C20.0956 26.3741 20.0992 26.3705 20.0992 26.3681L20.1782 26.2114L20.9679 24.6691L30.3403 6.37769C31.0116 5.06988 32.3612 4.24906 33.8306 4.25624L36.2763 4.2682C36.6125 4.2694 36.8302 4.62477 36.6807 4.9263L35.9843 6.41598C35.0044 8.37472 35.7187 9.96372 37.5805 9.96724C39.6433 9.96724 41.4118 9.02921 42.7268 6.42435C42.9601 5.96249 43.6122 4.55537 43.6122 4.55537C43.6888 4.40102 43.8479 4.3041 44.0202 4.3041L45.8413 4.31247C48.7621 4.31247 47.9699 6.76775 47.6828 7.35046V7.35166Z" fill="#0048D2"/>
<path d="M35.9174 13.6637H36.5958L35.8766 14.1088L35.8157 14.8147L35.4388 14.3792L34.7209 14.8147L35.2138 14.1088L34.8357 13.6637H35.5118L35.9856 12.9745L35.9174 13.6637Z" fill="#FFF1BA"/>
<path d="M32.4091 22.7515H33.1163L32.3805 23.1811L32.3397 23.8596L31.9329 23.4419L31.2019 23.8596L31.6912 23.1811L31.2844 22.7515H31.9892L32.4606 22.0898L32.4091 22.7515Z" fill="#FFF1BA"/>
<path d="M34.8752 22.1495H35.58L34.8513 22.5779L34.8154 23.2575L34.4073 22.8388L33.6799 23.2575L34.1633 22.5779L33.7528 22.1495H34.4564L34.9207 21.4867L34.8752 22.1495Z" fill="#FFF1BA"/>
<path d="M37.8641 14.2695H38.545L37.8342 14.6978L37.7911 15.3775L37.4011 14.9587L36.6939 15.3775L37.1689 14.6978L36.7789 14.2695H37.4585L37.9156 13.6078L37.8641 14.2695Z" fill="#FFF1BA"/>
<path d="M38.8441 15.9385H39.5297L38.8178 16.3669L38.7807 17.0466L38.3846 16.6278L37.6763 17.0466L38.1489 16.3669L37.7517 15.9385H38.4349L38.8884 15.2769L38.8441 15.9385Z" fill="#FFF1BA"/>
<path d="M37.145 20.503H37.8438L37.1211 20.9325L37.0888 21.6122L36.6807 21.1934L35.9628 21.6122L36.4391 20.9325L36.0311 20.503H36.7274L37.1857 19.8413L37.145 20.503Z" fill="#FFF1BA"/>
<path d="M38.6179 18.1867H39.3108L38.5952 18.6151L38.5617 19.2947L38.1597 18.8747L37.4453 19.2947L37.9192 18.6151L37.5147 18.1867H38.2052L38.6599 17.5238L38.6179 18.1867Z" fill="#FFF1BA"/>
<path d="M33.48 14.2754H34.1609L33.4418 14.7049L33.3855 15.3834L33.0038 14.9646L32.2883 15.3834L32.7765 14.7049L32.396 14.2754H33.0732L33.5435 13.6125L33.48 14.2754Z" fill="#FFF1BA"/>
<path d="M31.2461 15.9445H31.9329L31.2078 16.3729L31.1468 17.0525L30.7651 16.6337L30.0424 17.0525L30.5366 16.3729L30.1537 15.9445H30.8381L31.3143 15.2816L31.2461 15.9445Z" fill="#FFF1BA"/>
<path d="M29.7481 18.1911H30.4408L29.7086 18.6206L29.6487 19.2991L29.2623 18.8815L28.5324 19.2991L29.0313 18.6206L28.6449 18.1911H29.3353L29.8139 17.5294L29.7481 18.1911Z" fill="#FFF1BA"/>
<path d="M29.3974 20.5094H30.0975L29.3592 20.9389L29.3041 21.6185L28.9117 21.1997L28.177 21.6185L28.6759 20.9389L28.2823 20.5094H28.9799L29.4597 19.8477L29.3974 20.5094Z" fill="#FFF1BA"/>
<path d="M30.3643 22.1551H31.0679L30.3308 22.5835L30.2805 23.2631L29.8809 22.8443L29.1462 23.2631L29.6428 22.5835L29.2419 22.1551H29.9443L30.4205 21.4922L30.3643 22.1551Z" fill="#FFF1BA"/>
</svg>
