<svg width="42" height="42" viewBox="0 0 42 42" fill="none" xmlns="http://www.w3.org/2000/svg">
<path d="M26.125 36.375H22.7083V32.9583H26.125V36.375ZM22.7083 24.4167H19.2917V32.9583H22.7083V24.4167ZM36.375 21H32.9583V27.8333H36.375V21ZM32.9583 17.5833H29.5417V21H32.9583V17.5833ZM12.4583 21H9.04167V24.4167H12.4583V21ZM9.04167 17.5833H5.625V21H9.04167V17.5833ZM21 9.04167H24.4167V5.625H21V9.04167ZM8.1875 8.1875V13.3125H13.3125V8.1875H8.1875ZM15.875 15.875H5.625V5.625H15.875V15.875ZM8.1875 28.6875V33.8125H13.3125V28.6875H8.1875ZM15.875 36.375H5.625V26.125H15.875V36.375ZM28.6875 8.1875V13.3125H33.8125V8.1875H28.6875ZM36.375 15.875H26.125V5.625H36.375V15.875ZM32.9583 32.9583V27.8333H26.125V31.25H29.5417V36.375H36.375V32.9583H32.9583ZM29.5417 21H22.7083V24.4167H29.5417V21ZM22.7083 17.5833H12.4583V21H15.875V24.4167H19.2917V21H22.7083V17.5833ZM24.4167 15.875V12.4583H21V9.04167H17.5833V15.875H24.4167ZM12.0312 9.46875H9.46875V12.0312H12.0312V9.46875ZM12.0312 29.9688H9.46875V32.5312H12.0312V29.9688ZM32.5312 9.46875H29.9688V12.0312H32.5312V9.46875Z" fill="white"/>
</svg>
